# Blender v2.68 (sub 0) OBJ File: ''
# www.blender.org
o Icosphere
v -0.892695 3.343319 -0.348429
v 2.545029 4.475935 1.439840
v -2.205763 4.475935 2.545077
v -5.141947 4.475943 -0.348429
v -2.205763 4.475935 -3.241935
v 2.545029 4.475935 -2.136698
v 0.420373 6.308590 2.545077
v -4.330418 6.308590 1.439840
v -4.330418 6.308590 -2.136698
v 0.420373 6.308590 -3.241935
v 3.356558 6.308582 -0.348429
v -0.892695 7.441206 -0.348429
v 1.127934 3.649321 0.702682
v 0.356146 4.315056 2.403446
v -1.664491 3.649320 1.352318
v 1.127934 3.649321 -1.399540
v 3.148575 4.315060 -0.348429
v -4.162154 4.315059 1.352324
v -3.390339 3.649326 -0.348429
v -4.162154 4.315059 -2.049182
v -1.664491 3.649320 -2.049176
v 0.356146 4.315056 -3.100304
v 3.625604 5.392262 -1.399544
v 3.625604 5.392262 0.702686
v 1.899765 5.392262 2.403463
v -0.892695 5.392262 3.053098
v -3.685154 5.392262 2.403463
v -5.410993 5.392262 0.702686
v -5.410993 5.392262 -1.399544
v -3.685154 5.392262 -3.100321
v -0.892695 5.392262 -3.749956
v 1.899765 5.392262 -3.100321
v 2.376765 6.469466 1.352324
v -2.141536 6.469469 2.403446
v -4.933964 6.469465 -0.348429
v -2.141536 6.469469 -3.100304
v 2.376765 6.469466 -2.049182
v 1.604949 7.135200 -0.348429
v -0.120899 7.135205 1.352318
v -2.913324 7.135204 0.702682
v -2.913324 7.135204 -1.399540
v -0.120899 7.135205 -2.049176
vt 0.525121 0.228618
vt 0.525121 0.357937
vt 0.417568 0.237839
vt 0.634956 0.112877
vt 0.634956 0.015545
vt 0.741763 0.093007
vt 0.304475 0.428995
vt 0.260031 0.527369
vt 0.163559 0.428995
vt 0.561082 0.192434
vt 0.420166 0.192434
vt 0.516638 0.094060
vt 0.228442 0.090935
vt 0.163559 0.004663
vt 0.324777 0.004663
vt 0.850771 0.383101
vt 0.931496 0.455807
vt 0.850771 0.467535
vt 0.704931 0.478927
vt 0.849211 0.478927
vt 0.774808 0.534202
vt 0.693172 0.840747
vt 0.580615 0.840747
vt 0.650463 0.779818
vt 0.693172 0.778258
vt 0.563408 0.778258
vt 0.620739 0.720230
vt 0.185978 0.891485
vt 0.050923 0.891485
vt 0.132337 0.835276
vt 0.875955 0.873027
vt 0.948811 0.915700
vt 0.811026 0.915700
vt 0.779614 0.917261
vt 0.858129 0.959374
vt 0.696909 0.959374
vt 0.478093 0.999220
vt 0.417568 0.955940
vt 0.538618 0.955940
vt 0.133628 0.935159
vt 0.050923 0.893046
vt 0.212143 0.893046
vt 0.923627 0.478927
vt 0.988556 0.521601
vt 0.850771 0.521601
vt 0.563951 0.199166
vt 0.670008 0.273936
vt 0.526682 0.273936
vt 0.563408 0.559367
vt 0.698463 0.559367
vt 0.620332 0.638317
vt 0.671568 0.307806
vt 0.671568 0.199166
vt 0.767259 0.290004
vt 0.161998 0.685564
vt 0.031800 0.623394
vt 0.161998 0.602019
vt 0.099014 0.687124
vt 0.161998 0.780409
vt 0.050923 0.780409
vt 0.526682 0.275496
vt 0.658622 0.275496
vt 0.540216 0.357937
vt 0.163559 0.092495
vt 0.273719 0.210207
vt 0.163559 0.224436
vt 0.416007 0.605634
vt 0.416007 0.702966
vt 0.306458 0.623981
vt 0.295499 0.723562
vt 0.163559 0.723563
vt 0.220702 0.644771
vt 0.308445 0.491438
vt 0.308445 0.359497
vt 0.416007 0.415026
vt 0.040949 0.600459
vt 0.101473 0.486178
vt 0.161998 0.600459
vt 0.804974 0.539590
vt 0.754077 0.638317
vt 0.700023 0.539590
vt 0.049256 0.296846
vt 0.144107 0.396785
vt 0.000780 0.396785
vt 0.703371 0.459432
vt 0.666102 0.534202
vt 0.560044 0.459432
vt 0.705969 0.192434
vt 0.562642 0.192434
vt 0.668699 0.117664
vt 0.418605 0.092495
vt 0.323755 0.192434
vt 0.275279 0.092495
vt 0.416007 0.704526
vt 0.367917 0.797811
vt 0.304932 0.704526
vt 0.504924 0.715268
vt 0.426793 0.636317
vt 0.561847 0.636317
vt 0.161998 0.090935
vt 0.000780 0.090935
vt 0.097115 0.000780
vt 0.453567 0.634757
vt 0.417568 0.559367
vt 0.561847 0.559367
vt 0.859689 0.917261
vt 0.980739 0.917261
vt 0.920214 0.960540
vt 0.844144 0.173831
vt 0.904688 0.119165
vt 0.965195 0.173873
vt 0.833524 0.797002
vt 0.942164 0.797002
vt 0.885658 0.859740
vt 0.417568 0.912266
vt 0.578788 0.912266
vt 0.496083 0.954380
vt 0.050923 0.833716
vt 0.127822 0.781969
vt 0.212143 0.833716
vt 0.743324 0.056667
vt 0.878379 0.056667
vt 0.824738 0.112877
vt 0.392572 0.993756
vt 0.254788 0.993756
vt 0.319716 0.951082
vt 0.686677 0.852678
vt 0.610756 0.905848
vt 0.548892 0.852678
vt 0.768819 0.249778
vt 0.898583 0.249778
vt 0.826151 0.307806
vt 0.212143 0.979393
vt 0.074358 0.979393
vt 0.147214 0.936720
vt 0.301343 0.725123
vt 0.239480 0.778293
vt 0.163559 0.725123
vt 0.877410 0.738606
vt 0.803420 0.653785
vt 0.877410 0.645918
vt 0.392572 0.949522
vt 0.231352 0.949522
vt 0.309867 0.907409
vt 0.832788 0.309366
vt 0.748467 0.361113
vt 0.671568 0.309366
vt 0.561847 0.772104
vt 0.417568 0.772104
vt 0.487445 0.716829
vt 0.841252 0.190190
vt 0.898583 0.248218
vt 0.768819 0.248218
vt 0.254788 0.852678
vt 0.392572 0.852678
vt 0.316651 0.905848
vt 0.898703 0.539590
vt 0.898703 0.613996
vt 0.806534 0.549389
vt 0.761170 0.117664
vt 0.842584 0.173873
vt 0.707529 0.173873
vt 0.417568 0.799371
vt 0.578788 0.799371
vt 0.501889 0.851118
vt 0.771311 0.740166
vt 0.841188 0.795441
vt 0.696909 0.795441
vt 0.878970 0.727490
vt 0.878970 0.645918
vt 0.962527 0.715351
vt 0.963799 0.795441
vt 0.842749 0.795400
vt 0.903293 0.740733
vt 0.890855 0.372104
vt 0.834349 0.309366
vt 0.942989 0.309366
vt 0.779334 0.438376
vt 0.704931 0.383101
vt 0.849211 0.383101
vt 0.416007 0.851118
vt 0.254788 0.851118
vt 0.339109 0.799371
vt 0.750549 0.853211
vt 0.696909 0.797002
vt 0.831964 0.797002
vt 0.739618 0.854772
vt 0.809466 0.915700
vt 0.696909 0.915700
vt 0.743324 0.001937
vt 0.881108 0.001937
vt 0.819245 0.055107
vt 0.490000 0.910706
vt 0.417568 0.852678
vt 0.547332 0.852678
vt 0.462012 0.359497
vt 0.558484 0.457872
vt 0.417568 0.457872
vt 0.163559 0.225997
vt 0.306885 0.225997
vt 0.258409 0.325935
vt 0.747805 0.639878
vt 0.801860 0.738606
vt 0.696909 0.738606
vt 0.000780 0.398345
vt 0.161998 0.398345
vt 0.097115 0.484618
vt 0.000780 0.182650
vt 0.065663 0.092495
vt 0.161998 0.182650
vt 0.489116 0.015545
vt 0.633395 0.015545
vt 0.597396 0.090935
vt 0.284608 0.643210
vt 0.163559 0.643210
vt 0.224084 0.528930
vt 0.416007 0.281526
vt 0.308445 0.357937
vt 0.308445 0.225997
vt 0.563408 0.718670
vt 0.638205 0.639878
vt 0.695348 0.718670
vt 0.487555 0.090935
vt 0.326337 0.090935
vt 0.422672 0.004663
vt 0.131634 0.278384
vt 0.000780 0.295286
vt 0.000780 0.184211
vt 0.416007 0.604073
vt 0.320012 0.509075
vt 0.416007 0.492998
vt 0.558484 0.459432
vt 0.462012 0.557806
vt 0.417568 0.459432
vt 0.258409 0.327496
vt 0.306885 0.427435
vt 0.163559 0.427435
vt 0.703371 0.383101
vt 0.597314 0.457872
vt 0.560044 0.383101
vn 0.000977 -0.999969 0.000000
vn 0.226478 -0.948027 0.223395
vn -0.084445 -0.931211 0.354472
vn 0.552690 -0.641011 0.532548
vn 0.665517 -0.746361 0.000000
vn -0.282876 -0.959136 0.000000
vn -0.084445 -0.931211 -0.354472
vn 0.226478 -0.948027 -0.223395
vn 0.923856 -0.004395 0.382672
vn -0.190802 -0.592303 0.782769
vn 0.173711 -0.670370 0.721366
vn 0.000000 0.000000 1.000000
vn -0.737205 -0.675619 0.000000
vn -0.501663 -0.714194 0.488052
vn -0.923856 0.004395 0.382672
vn -0.190802 -0.592303 -0.782769
vn -0.501663 -0.714194 -0.488052
vn -0.484176 -0.004578 -0.874935
vn 0.552690 -0.641011 -0.532548
vn 0.173711 -0.670370 -0.721366
vn 0.484176 0.004578 -0.874935
vn 0.484176 0.004578 0.874935
vn -0.484176 -0.004578 0.874935
vn -0.923856 0.004395 -0.382672
vn 0.000000 0.000000 -1.000000
vn 0.923856 -0.004395 -0.382672
vn 0.190802 0.592303 0.782769
vn 0.501663 0.714194 0.488052
vn 0.084445 0.931211 0.354472
vn -0.552690 0.641011 0.532548
vn -0.173711 0.670370 0.721366
vn -0.226478 0.948027 0.223395
vn -0.552690 0.641011 -0.532548
vn -0.665517 0.746361 0.000000
vn -0.226478 0.948027 -0.223395
vn 0.190802 0.592303 -0.782769
vn -0.173711 0.670370 -0.721366
vn 0.084445 0.931211 -0.354472
vn 0.737205 0.675619 0.000000
vn 0.501663 0.714194 -0.488052
vn 0.282876 0.959136 0.000000
vn -0.000977 0.999969 0.000000
s 1
f 1/1/1 13/2/2 15/3/3
f 2/4/4 13/5/2 17/6/5
f 1/7/1 15/8/3 19/9/6
f 1/10/1 19/11/6 21/12/7
f 1/13/1 21/14/7 16/15/8
f 2/16/4 17/17/5 24/18/9
f 3/19/10 14/20/11 26/21/12
f 4/22/13 18/23/14 28/24/15
f 5/25/16 20/26/17 30/27/18
f 6/28/19 22/29/20 32/30/21
f 2/31/4 24/32/9 25/33/22
f 3/34/10 26/35/12 27/36/23
f 4/37/13 28/38/15 29/39/24
f 5/40/16 30/41/18 31/42/25
f 6/43/19 32/44/21 23/45/26
f 7/46/27 33/47/28 39/48/29
f 8/49/30 34/50/31 40/51/32
f 9/52/33 35/53/34 41/54/35
f 10/55/36 36/56/37 42/57/38
f 11/58/39 37/59/40 38/60/41
f 15/61/3 14/62/11 3/63/10
f 15/64/3 13/65/2 14/66/11
f 13/67/2 2/68/4 14/69/11
f 17/70/5 16/71/8 6/72/19
f 17/73/5 13/74/2 16/75/8
f 13/76/2 1/77/1 16/78/8
f 19/79/6 18/80/14 4/81/13
f 19/82/6 15/83/3 18/84/14
f 15/85/3 3/86/10 18/87/14
f 21/88/7 20/89/17 5/90/16
f 21/91/7 19/92/6 20/93/17
f 19/94/6 4/95/13 20/96/17
f 16/97/8 22/98/20 6/99/19
f 16/100/8 21/101/7 22/102/20
f 21/103/7 5/104/16 22/105/20
f 24/106/9 23/107/26 11/108/39
f 24/109/9 17/110/5 23/111/26
f 17/112/5 6/113/19 23/114/26
f 26/115/12 25/116/22 7/117/27
f 26/118/12 14/119/11 25/120/22
f 14/121/11 2/122/4 25/123/22
f 28/124/15 27/125/23 8/126/30
f 28/127/15 18/128/14 27/129/23
f 18/130/14 3/131/10 27/132/23
f 30/133/18 29/134/24 9/135/33
f 30/136/18 20/137/17 29/138/24
f 20/139/17 4/140/13 29/141/24
f 32/142/21 31/143/25 10/144/36
f 32/145/21 22/146/20 31/147/25
f 22/148/20 5/149/16 31/150/25
f 25/151/22 33/152/28 7/153/27
f 25/154/22 24/155/9 33/156/28
f 24/157/9 11/158/39 33/159/28
f 27/160/23 34/161/31 8/162/30
f 27/163/23 26/164/12 34/165/31
f 26/166/12 7/167/27 34/168/31
f 29/169/24 35/170/34 9/171/33
f 29/172/24 28/173/15 35/174/34
f 28/175/15 8/176/30 35/177/34
f 31/178/25 36/179/37 10/180/36
f 31/181/25 30/182/18 36/183/37
f 30/184/18 9/185/33 36/186/37
f 23/187/26 37/188/40 11/189/39
f 23/190/26 32/191/21 37/192/40
f 32/193/21 10/194/36 37/195/40
f 39/196/29 38/197/41 12/198/42
f 39/199/29 33/200/28 38/201/41
f 33/202/28 11/203/39 38/204/41
f 40/205/32 39/206/29 12/207/42
f 40/208/32 34/209/31 39/210/29
f 34/211/31 7/212/27 39/213/29
f 41/214/35 40/215/32 12/216/42
f 41/217/35 35/218/34 40/219/32
f 35/220/34 8/221/30 40/222/32
f 42/223/38 41/224/35 12/225/42
f 42/226/38 36/227/37 41/228/35
f 36/229/37 9/230/33 41/231/35
f 38/232/41 42/233/38 12/234/42
f 38/235/41 37/236/40 42/237/38
f 37/238/40 10/239/36 42/240/38
